<svg width="30" height="30" viewBox="0 0 30 30" fill="none" xmlns="http://www.w3.org/2000/svg">
<path d="M17.4206 17.88C17.6644 18.2962 17.8125 18.7744 17.8125 19.29C17.8125 20.8425 16.5544 22.1025 15 22.1025C13.4456 22.1025 12.1875 20.8425 12.1875 19.29C12.1875 17.7375 13.4456 16.4775 15 16.4775C15.1406 16.4775 15.2738 16.4981 15.4088 16.5188L22.965 7.08187L23.5837 7.47L17.4206 17.88ZM15 7.5C16.2075 7.5 17.3663 7.70062 18.4575 8.05687C18.54 8.08312 19.395 8.23312 19.7175 7.5C20.0231 6.80437 19.3931 6.38438 19.1325 6.29625C17.8313 5.86313 16.4456 5.625 15 5.625C7.75125 5.625 1.875 11.5012 1.875 18.75C1.875 19.9631 2.05312 21.1331 2.3625 22.2487C2.3625 22.2487 2.9025 23.0756 3.72188 22.6519C4.39875 22.2994 4.17563 21.8062 4.1175 21.5812C3.8775 20.6756 3.75 19.7287 3.75 18.75C3.75 12.5456 8.79562 7.5 15 7.5ZM24.2587 10.9275C23.7019 11.4844 24.1275 12.1987 24.1781 12.2737C25.4775 14.1075 26.25 16.3387 26.25 18.75C26.25 19.8187 26.0963 20.8519 25.8188 21.8306C25.7775 21.9712 25.8206 22.7137 26.4263 22.8356C27.3469 23.0231 27.6375 22.2506 27.6375 22.2506C27.9469 21.1331 28.125 19.9631 28.125 18.75C28.125 15.8662 27.195 13.2019 25.6162 11.04C25.4456 10.8056 24.6712 10.5131 24.2587 10.9275Z" fill="#656565"/>
</svg>
