{
    "asset" : {
        "generator" : "Khronos glTF Blender I/O v3.2.43",
        "version" : "2.0"
    },
    "scene" : 0,
    "scenes" : [
        {
            "name" : "Enercon E-126",
            "nodes" : [
                0,
                1,
                10,
                11,
                12,
                13,
                14
            ]
        }
    ],
    "nodes" : [
        {
            "mesh" : 0,
            "name" : "Ground",
            "scale" : [
                500,
                500,
                500
            ]
        },
        {
            "name" : "Orientation driver"
        },
        {
            "mesh" : 1,
            "name" : "Exterior floor",
            "rotation" : [
                0,
                -0.7071068286895752,
                0,
                0.7071068286895752
            ],
            "translation" : [
                0,
                -67.5,
                0
            ]
        },
        {
            "mesh" : 2,
            "name" : "Blade 1",
            "translation" : [
                3.736705780029297,
                4.780986309051514,
                -6.6120419432991184e-06
            ]
        },
        {
            "mesh" : 2,
            "name" : "Blade 2",
            "rotation" : [
                0.8660253882408142,
                0,
                0,
                0.5000001788139343
            ],
            "translation" : [
                3.736708402633667,
                -2.3904781341552734,
                4.140461444854736
            ]
        },
        {
            "mesh" : 2,
            "name" : "Blade 3",
            "rotation" : [
                -0.866025447845459,
                0,
                0,
                0.49999988079071045
            ],
            "translation" : [
                3.7367069721221924,
                -2.39052414894104,
                -4.140434741973877
            ]
        },
        {
            "children" : [
                3,
                4,
                5
            ],
            "mesh" : 3,
            "name" : "Noze",
            "rotation" : [
                -0.03084355592727661,
                -0.7064337730407715,
                0.03084355965256691,
                0.7064337730407715
            ],
            "translation" : [
                -1.0451800335431471e-05,
                6.715087890625,
                3.669764995574951
            ]
        },
        {
            "name" : "Railing 1",
            "rotation" : [
                0,
                -0.7071068286895752,
                0,
                0.7071068286895752
            ],
            "translation" : [
                0,
                -67.5,
                0
            ]
        },
        {
            "name" : "Railing 2",
            "rotation" : [
                0,
                -0.7071068286895752,
                0,
                0.7071068286895752
            ],
            "translation" : [
                0,
                -67.83000183105469,
                0
            ]
        },
        {
            "name" : "Railing 3",
            "rotation" : [
                0,
                -0.7071068286895752,
                0,
                0.7071068286895752
            ],
            "translation" : [
                0,
                -68.16000366210938,
                0
            ]
        },
        {
            "children" : [
                2,
                6,
                7,
                8,
                9
            ],
            "mesh" : 4,
            "name" : "Hub",
            "translation" : [
                0,
                134.99998474121094,
                0
            ]
        },
        {
            "mesh" : 5,
            "name" : "Tower",
            "translation" : [
                0,
                67.49999237060547,
                0
            ]
        },
        {
            "name" : "Profil railing 2cm",
            "rotation" : [
                0,
                -0.7071068286895752,
                0,
                0.7071068286895752
            ],
            "translation" : [
                3.6954879760742188e-06,
                148.16758728027344,
                -1.7098145484924316
            ]
        },
        {
            "name" : "Profil railing 4cm",
            "rotation" : [
                0,
                -0.7071068286895752,
                0,
                0.7071068286895752
            ],
            "translation" : [
                3.6954879760742188e-06,
                148.16758728027344,
                -1.7098145484924316
            ]
        },
        {
            "mesh" : 6,
            "name" : "Stair",
            "rotation" : [
                0,
                -0.7071068286895752,
                0,
                0.7071068286895752
            ],
            "translation" : [
                0,
                67.49999237060547,
                0
            ]
        }
    ],
    "materials" : [
        {
            "doubleSided" : true,
            "name" : "passerelle",
            "pbrMetallicRoughness" : {}
        },
        {
            "doubleSided" : true,
            "name" : "Enercon E-126",
            "pbrMetallicRoughness" : {}
        }
    ],
    "meshes" : [
        {
            "name" : "Plane.002",
            "primitives" : [
                {
                    "attributes" : {
                        "POSITION" : 0,
                        "NORMAL" : 1
                    },
                    "indices" : 2
                }
            ]
        },
        {
            "name" : "Cone.003",
            "primitives" : [
                {
                    "attributes" : {
                        "POSITION" : 3,
                        "NORMAL" : 4
                    },
                    "indices" : 5,
                    "material" : 0
                }
            ]
        },
        {
            "name" : "Line205.004",
            "primitives" : [
                {
                    "attributes" : {
                        "POSITION" : 6,
                        "NORMAL" : 7,
                        "TEXCOORD_0" : 8
                    },
                    "indices" : 9,
                    "material" : 1
                }
            ]
        },
        {
            "name" : "Cone.002",
            "primitives" : [
                {
                    "attributes" : {
                        "POSITION" : 10,
                        "NORMAL" : 11,
                        "TEXCOORD_0" : 12
                    },
                    "indices" : 13,
                    "material" : 1
                }
            ]
        },
        {
            "name" : "Cone.001",
            "primitives" : [
                {
                    "attributes" : {
                        "POSITION" : 14,
                        "NORMAL" : 15,
                        "TEXCOORD_0" : 16
                    },
                    "indices" : 17,
                    "material" : 1
                }
            ]
        },
        {
            "name" : "Cone",
            "primitives" : [
                {
                    "attributes" : {
                        "POSITION" : 18,
                        "NORMAL" : 19,
                        "TEXCOORD_0" : 20
                    },
                    "indices" : 21,
                    "material" : 1
                }
            ]
        },
        {
            "name" : "Mesh.001",
            "primitives" : [
                {
                    "attributes" : {
                        "POSITION" : 22,
                        "NORMAL" : 23,
                        "TEXCOORD_0" : 24
                    },
                    "indices" : 25,
                    "material" : 1
                },
                {
                    "attributes" : {
                        "POSITION" : 26,
                        "NORMAL" : 27,
                        "TEXCOORD_0" : 28
                    },
                    "indices" : 29,
                    "material" : 0
                }
            ]
        }
    ],
    "accessors" : [
        {
            "bufferView" : 0,
            "componentType" : 5126,
            "count" : 4,
            "max" : [
                1,
                0,
                1
            ],
            "min" : [
                -1,
                0,
                -1
            ],
            "type" : "VEC3"
        },
        {
            "bufferView" : 1,
            "componentType" : 5126,
            "count" : 4,
            "type" : "VEC3"
        },
        {
            "bufferView" : 2,
            "componentType" : 5123,
            "count" : 6,
            "type" : "SCALAR"
        },
        {
            "bufferView" : 3,
            "componentType" : 5126,
            "count" : 1058,
            "max" : [
                0.342771053314209,
                82.71775817871094,
                -3.635883331298828e-06
            ],
            "min" : [
                -2.309814453125,
                76.78031921386719,
                -2.7387008666992188
            ],
            "type" : "VEC3"
        },
        {
            "bufferView" : 4,
            "componentType" : 5126,
            "count" : 1058,
            "type" : "VEC3"
        },
        {
            "bufferView" : 5,
            "componentType" : 5123,
            "count" : 1794,
            "type" : "SCALAR"
        },
        {
            "bufferView" : 6,
            "componentType" : 5126,
            "count" : 1244,
            "max" : [
                1.8224246501922607,
                62.097530364990234,
                3.92914080619812
            ],
            "min" : [
                -3.334226369857788,
                -1.8282478777109645e-05,
                -1.8224252462387085
            ],
            "type" : "VEC3"
        },
        {
            "bufferView" : 7,
            "componentType" : 5126,
            "count" : 1244,
            "type" : "VEC3"
        },
        {
            "bufferView" : 8,
            "componentType" : 5126,
            "count" : 1244,
            "type" : "VEC2"
        },
        {
            "bufferView" : 9,
            "componentType" : 5123,
            "count" : 2730,
            "type" : "SCALAR"
        },
        {
            "bufferView" : 10,
            "componentType" : 5126,
            "count" : 4086,
            "max" : [
                8.957039833068848,
                5.8816399574279785,
                5.95719575881958
            ],
            "min" : [
                -2.5033950805664062e-06,
                -6.677788257598877,
                -7.186310768127441
            ],
            "type" : "VEC3"
        },
        {
            "bufferView" : 11,
            "componentType" : 5126,
            "count" : 4086,
            "type" : "VEC3"
        },
        {
            "bufferView" : 12,
            "componentType" : 5126,
            "count" : 4086,
            "type" : "VEC2"
        },
        {
            "bufferView" : 13,
            "componentType" : 5123,
            "count" : 6156,
            "type" : "SCALAR"
        },
        {
            "bufferView" : 14,
            "componentType" : 5126,
            "count" : 2238,
            "max" : [
                5.909778594970703,
                12.584587097167969,
                4.1673264503479
            ],
            "min" : [
                -5.9097819328308105,
                -0.5,
                -9.776952743530273
            ],
            "type" : "VEC3"
        },
        {
            "bufferView" : 15,
            "componentType" : 5126,
            "count" : 2238,
            "type" : "VEC3"
        },
        {
            "bufferView" : 16,
            "componentType" : 5126,
            "count" : 2238,
            "type" : "VEC2"
        },
        {
            "bufferView" : 17,
            "componentType" : 5123,
            "count" : 3570,
            "type" : "SCALAR"
        },
        {
            "bufferView" : 18,
            "componentType" : 5126,
            "count" : 3624,
            "max" : [
                7.25,
                67.5,
                8.022387504577637
            ],
            "min" : [
                -7.25,
                -67.5,
                -7.25
            ],
            "type" : "VEC3"
        },
        {
            "bufferView" : 19,
            "componentType" : 5126,
            "count" : 3624,
            "type" : "VEC3"
        },
        {
            "bufferView" : 20,
            "componentType" : 5126,
            "count" : 3624,
            "type" : "VEC2"
        },
        {
            "bufferView" : 21,
            "componentType" : 5123,
            "count" : 5580,
            "type" : "SCALAR"
        },
        {
            "bufferView" : 22,
            "componentType" : 5126,
            "count" : 1920,
            "max" : [
                9.449344635009766,
                -66.23602294921875,
                0.7064592242240906
            ],
            "min" : [
                7.1614837646484375,
                -67.56260681152344,
                -0.7462738752365112
            ],
            "type" : "VEC3"
        },
        {
            "bufferView" : 23,
            "componentType" : 5126,
            "count" : 1920,
            "type" : "VEC3"
        },
        {
            "bufferView" : 24,
            "componentType" : 5126,
            "count" : 1920,
            "type" : "VEC2"
        },
        {
            "bufferView" : 25,
            "componentType" : 5123,
            "count" : 2892,
            "type" : "SCALAR"
        },
        {
            "bufferView" : 26,
            "componentType" : 5126,
            "count" : 96,
            "max" : [
                9.43923282623291,
                -67.256103515625,
                0.6762734651565552
            ],
            "min" : [
                7.194571495056152,
                -67.44705963134766,
                -0.6762745976448059
            ],
            "type" : "VEC3"
        },
        {
            "bufferView" : 27,
            "componentType" : 5126,
            "count" : 96,
            "type" : "VEC3"
        },
        {
            "bufferView" : 28,
            "componentType" : 5126,
            "count" : 96,
            "type" : "VEC2"
        },
        {
            "bufferView" : 29,
            "componentType" : 5123,
            "count" : 144,
            "type" : "SCALAR"
        }
    ],
    "bufferViews" : [
        {
            "buffer" : 0,
            "byteLength" : 48,
            "byteOffset" : 0
        },
        {
            "buffer" : 0,
            "byteLength" : 48,
            "byteOffset" : 48
        },
        {
            "buffer" : 0,
            "byteLength" : 12,
            "byteOffset" : 96
        },
        {
            "buffer" : 0,
            "byteLength" : 12696,
            "byteOffset" : 108
        },
        {
            "buffer" : 0,
            "byteLength" : 12696,
            "byteOffset" : 12804
        },
        {
            "buffer" : 0,
            "byteLength" : 3588,
            "byteOffset" : 25500
        },
        {
            "buffer" : 0,
            "byteLength" : 14928,
            "byteOffset" : 29088
        },
        {
            "buffer" : 0,
            "byteLength" : 14928,
            "byteOffset" : 44016
        },
        {
            "buffer" : 0,
            "byteLength" : 9952,
            "byteOffset" : 58944
        },
        {
            "buffer" : 0,
            "byteLength" : 5460,
            "byteOffset" : 68896
        },
        {
            "buffer" : 0,
            "byteLength" : 49032,
            "byteOffset" : 74356
        },
        {
            "buffer" : 0,
            "byteLength" : 49032,
            "byteOffset" : 123388
        },
        {
            "buffer" : 0,
            "byteLength" : 32688,
            "byteOffset" : 172420
        },
        {
            "buffer" : 0,
            "byteLength" : 12312,
            "byteOffset" : 205108
        },
        {
            "buffer" : 0,
            "byteLength" : 26856,
            "byteOffset" : 217420
        },
        {
            "buffer" : 0,
            "byteLength" : 26856,
            "byteOffset" : 244276
        },
        {
            "buffer" : 0,
            "byteLength" : 17904,
            "byteOffset" : 271132
        },
        {
            "buffer" : 0,
            "byteLength" : 7140,
            "byteOffset" : 289036
        },
        {
            "buffer" : 0,
            "byteLength" : 43488,
            "byteOffset" : 296176
        },
        {
            "buffer" : 0,
            "byteLength" : 43488,
            "byteOffset" : 339664
        },
        {
            "buffer" : 0,
            "byteLength" : 28992,
            "byteOffset" : 383152
        },
        {
            "buffer" : 0,
            "byteLength" : 11160,
            "byteOffset" : 412144
        },
        {
            "buffer" : 0,
            "byteLength" : 23040,
            "byteOffset" : 423304
        },
        {
            "buffer" : 0,
            "byteLength" : 23040,
            "byteOffset" : 446344
        },
        {
            "buffer" : 0,
            "byteLength" : 15360,
            "byteOffset" : 469384
        },
        {
            "buffer" : 0,
            "byteLength" : 5784,
            "byteOffset" : 484744
        },
        {
            "buffer" : 0,
            "byteLength" : 1152,
            "byteOffset" : 490528
        },
        {
            "buffer" : 0,
            "byteLength" : 1152,
            "byteOffset" : 491680
        },
        {
            "buffer" : 0,
            "byteLength" : 768,
            "byteOffset" : 492832
        },
        {
            "buffer" : 0,
            "byteLength" : 288,
            "byteOffset" : 493600
        }
    ],
    "buffers" : [
        {
            "byteLength" : 493888,
            "uri" : "data:application/octet-stream;base64,"
        }
    ]
}
