{
    "asset" : {
        "generator" : "Khronos glTF Blender I/O v3.2.43",
        "version" : "2.0"
    },
    "scene" : 0,
    "scenes" : [
        {
            "name" : "Scene",
            "nodes" : [
                0,
                1,
                2,
                3,
                4,
                5,
                6
            ]
        }
    ],
    "nodes" : [
        {
            "mesh" : 0,
            "name" : "Plane.001",
            "rotation" : [
                0,
                -0.1297515332698822,
                0,
                0.9915465712547302
            ],
            "scale" : [
                0.05494740232825279,
                0.05494740977883339,
                0.05494740232825279
            ],
            "translation" : [
                1.2809362411499023,
                0.05500093102455139,
                -0.2138066291809082
            ]
        },
        {
            "mesh" : 1,
            "name" : "Cylinder",
            "rotation" : [
                -0.14452029764652252,
                -0.8196151256561279,
                -0.0962681993842125,
                0.5459645390510559
            ],
            "scale" : [
                0.30557745695114136,
                0.061115484684705734,
                0.30557745695114136
            ],
            "translation" : [
                -0.026745276525616646,
                27.841005325317383,
                1.4152543544769287
            ]
        },
        {
            "mesh" : 1,
            "name" : "Cylinder.001",
            "rotation" : [
                -0.18463604152202606,
                -0.06720201671123505,
                -0.9213749170303345,
                0.3353530466556549
            ],
            "scale" : [
                0.3085311949253082,
                0.061706237494945526,
                0.308531254529953
            ],
            "translation" : [
                -0.009644374251365662,
                27.834781646728516,
                1.4152543544769287
            ]
        },
        {
            "mesh" : 1,
            "name" : "Cylinder.002",
            "rotation" : [
                -0.735135018825531,
                0.6168517470359802,
                0.2154075801372528,
                0.18074838817119598
            ],
            "scale" : [
                0.3085311949253082,
                0.06170623376965523,
                0.30853116512298584
            ],
            "translation" : [
                -0.009644374251365662,
                27.834781646728516,
                1.4152543544769287
            ]
        },
        {
            "mesh" : 2,
            "name" : "Roundcube",
            "rotation" : [
                0,
                0,
                -0.17364846169948578,
                0.9848077297210693
            ],
            "scale" : [
                0.6479156017303467,
                0.6479156017303467,
                0.6479155421257019
            ],
            "translation" : [
                -0.02129209414124489,
                27.834781646728516,
                1.5698260068893433
            ]
        },
        {
            "mesh" : 3,
            "name" : "Cube",
            "scale" : [
                0.5890141129493713,
                0.5890141129493713,
                0.9921173453330994
            ],
            "translation" : [
                -0.009369999170303345,
                27.83633804321289,
                -0.03867697715759277
            ]
        },
        {
            "mesh" : 4,
            "name" : "Cylinder.003",
            "scale" : [
                0.7401943206787109,
                0.7401943206787109,
                0.7401943206787109
            ],
            "translation" : [
                -0.009369999170303345,
                3.434324264526367,
                0.012839794158935547
            ]
        }
    ],
    "materials" : [
        {
            "doubleSided" : true,
            "name" : "suelo",
            "pbrMetallicRoughness" : {
                "metallicFactor" : 0,
                "roughnessFactor" : 0.5
            }
        },
        {
            "doubleSided" : true,
            "name" : "eolico",
            "pbrMetallicRoughness" : {
                "metallicFactor" : 0.26605504751205444,
                "roughnessFactor" : 0.2706422209739685
            }
        }
    ],
    "meshes" : [
        {
            "name" : "Plane.002",
            "primitives" : [
                {
                    "attributes" : {
                        "POSITION" : 0,
                        "NORMAL" : 1,
                        "TEXCOORD_0" : 2
                    },
                    "indices" : 3,
                    "material" : 0
                }
            ]
        },
        {
            "name" : "Cylinder",
            "primitives" : [
                {
                    "attributes" : {
                        "POSITION" : 4,
                        "NORMAL" : 5,
                        "TEXCOORD_0" : 6
                    },
                    "indices" : 7,
                    "material" : 1
                }
            ]
        },
        {
            "name" : "Roundcube",
            "primitives" : [
                {
                    "attributes" : {
                        "POSITION" : 8,
                        "NORMAL" : 9,
                        "TEXCOORD_0" : 10
                    },
                    "indices" : 11,
                    "material" : 1
                }
            ]
        },
        {
            "name" : "Cube.002",
            "primitives" : [
                {
                    "attributes" : {
                        "POSITION" : 12,
                        "NORMAL" : 13,
                        "TEXCOORD_0" : 14
                    },
                    "indices" : 15,
                    "material" : 1
                }
            ]
        },
        {
            "name" : "Cylinder.003",
            "primitives" : [
                {
                    "attributes" : {
                        "POSITION" : 16,
                        "NORMAL" : 17,
                        "TEXCOORD_0" : 18
                    },
                    "indices" : 19,
                    "material" : 1
                }
            ]
        }
    ],
    "accessors" : [
        {
            "bufferView" : 0,
            "componentType" : 5126,
            "count" : 60,
            "max" : [
                2.4388818740844727,
                1.7794550657272339,
                2.4388887882232666
            ],
            "min" : [
                -2.4388928413391113,
                -0.10826867818832397,
                -2.4388720989227295
            ],
            "type" : "VEC3"
        },
        {
            "bufferView" : 1,
            "componentType" : 5126,
            "count" : 60,
            "type" : "VEC3"
        },
        {
            "bufferView" : 2,
            "componentType" : 5126,
            "count" : 60,
            "type" : "VEC2"
        },
        {
            "bufferView" : 3,
            "componentType" : 5123,
            "count" : 90,
            "type" : "SCALAR"
        },
        {
            "bufferView" : 4,
            "componentType" : 5126,
            "count" : 176,
            "max" : [
                0.9943946599960327,
                155.70651245117188,
                0.9279835224151611
            ],
            "min" : [
                -1.7480720281600952,
                -0.043040305376052856,
                -0.963796854019165
            ],
            "type" : "VEC3"
        },
        {
            "bufferView" : 5,
            "componentType" : 5126,
            "count" : 176,
            "type" : "VEC3"
        },
        {
            "bufferView" : 6,
            "componentType" : 5126,
            "count" : 176,
            "type" : "VEC2"
        },
        {
            "bufferView" : 7,
            "componentType" : 5123,
            "count" : 780,
            "type" : "SCALAR"
        },
        {
            "bufferView" : 8,
            "componentType" : 5126,
            "count" : 1132,
            "max" : [
                1.0263080596923828,
                1.007258653640747,
                1.1319485902786255
            ],
            "min" : [
                -1.0263080596923828,
                -0.9490336179733276,
                -0.9504430294036865
            ],
            "type" : "VEC3"
        },
        {
            "bufferView" : 9,
            "componentType" : 5126,
            "count" : 1132,
            "type" : "VEC3"
        },
        {
            "bufferView" : 10,
            "componentType" : 5126,
            "count" : 1132,
            "type" : "VEC2"
        },
        {
            "bufferView" : 11,
            "componentType" : 5123,
            "count" : 1968,
            "type" : "SCALAR"
        },
        {
            "bufferView" : 12,
            "componentType" : 5126,
            "count" : 676,
            "max" : [
                1,
                1,
                1
            ],
            "min" : [
                -1,
                -1,
                -1
            ],
            "type" : "VEC3"
        },
        {
            "bufferView" : 13,
            "componentType" : 5126,
            "count" : 676,
            "type" : "VEC3"
        },
        {
            "bufferView" : 14,
            "componentType" : 5126,
            "count" : 676,
            "type" : "VEC2"
        },
        {
            "bufferView" : 15,
            "componentType" : 5123,
            "count" : 1044,
            "type" : "SCALAR"
        },
        {
            "bufferView" : 16,
            "componentType" : 5126,
            "count" : 321,
            "max" : [
                1.2961528301239014,
                32.56157302856445,
                1.2961528301239014
            ],
            "min" : [
                -1.2961527109146118,
                -4.8385162353515625,
                -1.2961528301239014
            ],
            "type" : "VEC3"
        },
        {
            "bufferView" : 17,
            "componentType" : 5126,
            "count" : 321,
            "type" : "VEC3"
        },
        {
            "bufferView" : 18,
            "componentType" : 5126,
            "count" : 321,
            "type" : "VEC2"
        },
        {
            "bufferView" : 19,
            "componentType" : 5123,
            "count" : 1524,
            "type" : "SCALAR"
        }
    ],
    "bufferViews" : [
        {
            "buffer" : 0,
            "byteLength" : 720,
            "byteOffset" : 0
        },
        {
            "buffer" : 0,
            "byteLength" : 720,
            "byteOffset" : 720
        },
        {
            "buffer" : 0,
            "byteLength" : 480,
            "byteOffset" : 1440
        },
        {
            "buffer" : 0,
            "byteLength" : 180,
            "byteOffset" : 1920
        },
        {
            "buffer" : 0,
            "byteLength" : 2112,
            "byteOffset" : 2100
        },
        {
            "buffer" : 0,
            "byteLength" : 2112,
            "byteOffset" : 4212
        },
        {
            "buffer" : 0,
            "byteLength" : 1408,
            "byteOffset" : 6324
        },
        {
            "buffer" : 0,
            "byteLength" : 1560,
            "byteOffset" : 7732
        },
        {
            "buffer" : 0,
            "byteLength" : 13584,
            "byteOffset" : 9292
        },
        {
            "buffer" : 0,
            "byteLength" : 13584,
            "byteOffset" : 22876
        },
        {
            "buffer" : 0,
            "byteLength" : 9056,
            "byteOffset" : 36460
        },
        {
            "buffer" : 0,
            "byteLength" : 3936,
            "byteOffset" : 45516
        },
        {
            "buffer" : 0,
            "byteLength" : 8112,
            "byteOffset" : 49452
        },
        {
            "buffer" : 0,
            "byteLength" : 8112,
            "byteOffset" : 57564
        },
        {
            "buffer" : 0,
            "byteLength" : 5408,
            "byteOffset" : 65676
        },
        {
            "buffer" : 0,
            "byteLength" : 2088,
            "byteOffset" : 71084
        },
        {
            "buffer" : 0,
            "byteLength" : 3852,
            "byteOffset" : 73172
        },
        {
            "buffer" : 0,
            "byteLength" : 3852,
            "byteOffset" : 77024
        },
        {
            "buffer" : 0,
            "byteLength" : 2568,
            "byteOffset" : 80876
        },
        {
            "buffer" : 0,
            "byteLength" : 3048,
            "byteOffset" : 83444
        }
    ],
    "buffers" : [
        {
            "byteLength" : 86492,
            "uri" : "data:application/octet-stream;base64,"
        }
    ]
}
