<svg width="70" height="70" viewBox="0 0 70 70" fill="none" xmlns="http://www.w3.org/2000/svg">
    <path d="M20.65 32.41C23.87 29.68 28.14 28.28 32.27 28.56C37.24 28.91 42 31.43 46.9 30.87C48.3 30.73 49.7 30.31 50.82 29.47C52.43 28.28 53.41 26.18 53.13 24.15C52.85 22.12 51.24 20.37 49.28 19.95C47.32 19.53 45.08 20.65 44.31 22.54C43.82 23.73 43.96 25.27 44.87 26.18C45.78 27.09 47.46 27.23 48.37 26.25" stroke="#A0C8D7" stroke-width="3" stroke-miterlimit="10" stroke-linecap="round"/>
    <path d="M18.13 37.73C21.42 35.28 25.13 33.39 29.05 32.13" stroke="#A0C8D7" stroke-width="3" stroke-miterlimit="10" stroke-linecap="round"/>
    <path d="M25.48 38.29C28.7 35.63 32.9 34.16 37.03 34.16C43.68 34.16 49.84 37.8 56.49 37.8C58.38 37.8 60.48 37.38 61.81 35.98C63.28 34.44 63.42 31.71 62.02 30.17C60.55 28.56 57.68 28.63 56.35 30.31C55.65 31.22 55.44 32.62 56.21 33.53C56.98 34.44 58.66 34.37 59.15 33.32" stroke="#77A4BD" stroke-width="3" stroke-miterlimit="10" stroke-linecap="round"/>
    <path d="M7 46.97C10.08 49.21 14.49 48.72 18.13 47.46C22.47 45.92 26.46 43.47 30.59 41.3C32.13 40.46 33.67 39.69 35.35 39.27C37.59 38.71 39.97 38.78 42.14 39.55C43.26 39.97 44.31 40.53 45.08 41.37C46.55 42.98 46.83 45.57 45.78 47.46C44.66 49.35 42.28 50.4 40.18 49.91C39.62 49.77 38.99 49.56 38.57 49.14C36.96 47.6 37.52 44.03 40.25 44.24C41.02 44.31 41.72 44.73 42.07 45.43" stroke="#A0C8D7" stroke-width="3" stroke-miterlimit="10" stroke-linecap="round"/>
</svg>